<svg width="47" height="42" viewBox="0 0 47 42" fill="none" xmlns="http://www.w3.org/2000/svg">
<g id="Network3 Logomark Colored 2">
<path id="Logomark" d="M45.9293 19.3496C45.7745 19.0875 45.5828 18.8588 45.3699 18.6636C45.0357 18.3628 44.6452 18.1464 44.2266 18.018C43.8836 17.916 43.5212 17.8791 43.1606 17.9037L35.6162 5.11033C35.8871 4.85175 36.1034 4.5492 36.2582 4.22202H36.2529C36.6505 3.36538 36.6329 2.33107 36.1157 1.45684C35.9609 1.19475 35.7692 0.966072 35.5564 0.770821C35.2221 0.470028 34.8316 0.253668 34.413 0.12526C33.6461 -0.103413 32.7877 -0.026016 32.0436 0.415498C31.6531 0.64593 31.3347 0.955518 31.0972 1.30908C30.8879 1.61515 30.7454 1.95992 30.6645 2.31876L16.2792 2.45245C16.2194 2.1112 16.0981 1.77346 15.9116 1.45684C15.7568 1.19475 15.5651 0.966072 15.3522 0.770821C15.018 0.470028 14.6275 0.253668 14.2089 0.12526C13.4419 -0.103413 12.5835 -0.026016 11.8395 0.415498C11.449 0.64593 11.1306 0.955518 10.8931 1.30908C10.6416 1.67672 10.4815 2.09888 10.4164 2.53512C10.3584 2.92386 10.376 3.32316 10.478 3.70839C10.5448 3.97576 10.6504 4.23785 10.7981 4.48588C10.8808 4.62484 10.974 4.75676 11.0761 4.87638C11.1306 4.94146 11.1886 5.00479 11.2467 5.06459L3.91685 18.0515C3.88519 18.0409 3.85528 18.0268 3.82538 18.018C3.05845 17.7894 2.20004 17.8668 1.45598 18.3083C1.06548 18.5387 0.747093 18.8483 0.509625 19.2019C0.258085 19.5695 0.098014 19.9917 0.0329302 20.4279C-0.0251175 20.8166 -0.00752732 21.2159 0.0944959 21.6012C0.161339 21.8668 0.26688 22.1306 0.414638 22.3786C0.497312 22.5176 0.59054 22.6495 0.692563 22.7691C1.16222 23.3356 1.81834 23.6891 2.51667 23.7982C2.94587 23.865 3.39618 23.8386 3.82714 23.7067C3.83945 23.7032 3.85176 23.6979 3.86408 23.6944L11.2045 36.1395C11.0919 36.2591 10.9864 36.384 10.8984 36.5177C10.6469 36.8871 10.4868 37.3075 10.4217 37.7437C10.3637 38.1324 10.3813 38.5317 10.4833 38.917C10.5501 39.1843 10.6557 39.4464 10.8034 39.6945C10.8861 39.8334 10.9793 39.9653 11.0813 40.085C11.551 40.6514 12.2071 41.0049 12.9054 41.114C13.3346 41.1808 13.785 41.1544 14.2159 41.0225C14.4411 40.9557 14.6645 40.8607 14.8773 40.7358C15.0128 40.6566 15.1376 40.5669 15.2537 40.4684C15.6038 40.1817 15.8729 39.8229 16.0576 39.4306H16.0523C16.0805 39.3708 16.1069 39.3075 16.1315 39.2424L30.7402 39.1069C30.8052 39.3075 30.8932 39.5045 31.0058 39.6945C31.0884 39.8334 31.1817 39.9653 31.2837 40.085C31.7534 40.6514 32.4095 41.0049 33.1078 41.114C33.537 41.1808 33.9873 41.1544 34.4183 41.0225C34.6434 40.9557 34.8668 40.8607 35.0797 40.7358C35.2151 40.6566 35.34 40.5669 35.4561 40.4684C35.8061 40.1817 36.0753 39.8229 36.26 39.4306H36.2547C36.6522 38.5722 36.6346 37.5397 36.1175 36.6654C36.0419 36.537 35.9557 36.4156 35.8624 36.3013L42.9267 23.7982C43.3541 23.8633 43.8027 23.8369 44.2301 23.7049C44.4552 23.6381 44.6786 23.5431 44.8915 23.4182C45.0269 23.3391 45.1518 23.2476 45.2679 23.1509C45.618 22.8641 45.8871 22.5053 46.0718 22.113H46.0665C46.464 21.2564 46.4465 20.2221 45.9293 19.3479V19.3496ZM34.5027 35.3655C34.4728 35.3549 34.4447 35.3426 34.4148 35.3338C34.1491 35.2547 33.873 35.2142 33.5951 35.2107L32.7243 32.7692C33.5282 32.0726 33.8888 30.9979 33.6936 29.9723L40.9055 24.0321L34.5027 35.3637V35.3655ZM17.6618 37.5854L28.8949 32.8308C29.5194 33.3409 30.3285 33.5748 31.1254 33.4816C31.1588 33.4781 31.1922 33.4693 31.2274 33.464L32.0067 35.6522C31.6355 35.8809 31.3294 36.1782 31.1025 36.5177C30.9055 36.8061 30.7665 37.128 30.6839 37.464L17.6636 37.5854H17.6618ZM30.763 3.96345C30.8264 4.14287 30.9055 4.31877 31.0058 4.48763C31.0884 4.6266 31.1817 4.75852 31.2837 4.87814C31.3347 4.9397 31.3892 4.99775 31.4455 5.0558L29.8448 7.88782C29.2081 7.75766 28.5291 7.83505 27.9117 8.1464L17.4771 4.08834L30.763 3.9652V3.96345ZM32.9231 28.4842C32.8158 28.3716 32.7015 28.2661 32.5801 28.1746C32.3461 27.9934 32.0858 27.8527 31.8114 27.7507L30.814 13.3179C30.9301 13.2458 31.0392 13.1684 31.143 13.0822C31.3998 12.8729 31.6109 12.6231 31.7797 12.3522L40.8299 19.3426C40.6294 19.6768 40.4957 20.0462 40.4376 20.4279C40.3796 20.8166 40.3972 21.2159 40.4992 21.6012C40.5414 21.77 40.6012 21.9371 40.6751 22.099L32.9249 28.4825L32.9231 28.4842ZM15.8518 36.5669C15.7093 36.347 15.5422 36.1483 15.3558 35.9794C15.0215 35.6786 14.631 35.4622 14.2124 35.3338C14.1192 35.3057 14.0242 35.2828 13.9274 35.2635L12.0822 22.5246C12.1737 22.4983 12.2652 22.4701 12.3549 22.4349C12.5044 22.3769 12.6486 22.3083 12.7911 22.2221C12.9934 22.1025 13.1746 21.9635 13.3364 21.807L27.8483 30.0058C27.7868 30.3435 27.785 30.6935 27.8448 31.0383C27.8677 31.1738 27.9046 31.3092 27.9468 31.4429L15.8483 36.5652L15.8518 36.5669ZM13.6425 5.92651C13.836 5.90892 14.0277 5.87198 14.2177 5.81394C14.4428 5.74709 14.6662 5.65211 14.8791 5.52722C15.0145 5.44806 15.1394 5.35659 15.2555 5.25984C15.3294 5.20004 15.398 5.13319 15.4648 5.06811L26.6241 9.40762C26.4675 9.70489 26.3637 10.0268 26.3127 10.3575C26.3022 10.4331 26.2951 10.5088 26.2898 10.5844L13.1165 17.332C12.8896 17.1526 12.6381 17.0084 12.3725 16.9028C12.2634 16.8588 12.1508 16.8237 12.0365 16.7938L13.6442 5.92651H13.6425ZM26.6927 12.3082C26.7753 12.4472 26.8686 12.5791 26.9706 12.6987C27.4402 13.2652 28.0964 13.6187 28.7947 13.7278C28.9266 13.7489 29.0621 13.7594 29.1975 13.7612L30.1562 27.6311C30.0752 27.6487 29.9926 27.6663 29.9134 27.6909C29.69 27.7577 29.4719 27.8527 29.2608 27.9759C29.0005 28.1306 28.7736 28.3171 28.5801 28.5282L14.1614 20.3822C14.2775 19.909 14.281 19.4094 14.1579 18.931C14.1368 18.8483 14.1121 18.7656 14.084 18.6847L26.6592 12.2449C26.6715 12.266 26.6821 12.2889 26.6944 12.31L26.6927 12.3082ZM32.2107 10.6073C32.1826 10.1534 32.0506 9.69786 31.8026 9.27921C31.6619 9.04174 31.4913 8.83242 31.3013 8.64948L32.8774 5.85967C32.953 5.87726 33.0304 5.89309 33.1078 5.90541C33.4526 5.95818 33.8097 5.95114 34.1615 5.87902L40.9126 17.325L32.2107 10.6055V10.6073ZM10.3637 16.8377C10.1579 16.9046 9.95557 16.9925 9.76208 17.1086C8.99514 17.5642 8.50965 18.3083 8.36014 19.1209L5.68994 19.6662C5.64245 19.5589 5.58968 19.4534 5.52811 19.3496C5.45423 19.223 5.3698 19.1051 5.28009 18.9943L11.7375 7.56065L10.3637 16.836V16.8377ZM5.66356 22.1183C5.78317 21.8597 5.86408 21.5853 5.9063 21.3039L8.51845 20.7691C8.53956 20.8202 8.56242 20.8729 8.58705 20.9239C8.62751 21.0119 8.67148 21.0981 8.72249 21.186C9.11652 21.8509 9.73217 22.3048 10.4199 22.5123L12.1561 34.5053L5.23963 22.7815C5.41202 22.5774 5.55802 22.3558 5.66883 22.1183H5.66356Z" fill="#00D193"/>
</g>
</svg>
