<svg width="32" height="32" viewBox="0 0 32 32" fill="none" xmlns="http://www.w3.org/2000/svg">
<path d="M16.666 4.1582C19.3867 4.1582 22.0266 5.08272 24.1528 6.78015C26.2791 8.47758 27.7653 10.8471 28.3679 13.5003C28.9705 16.1533 28.6537 18.9324 27.4695 21.3819C26.2851 23.8312 24.3036 25.8055 21.8499 26.9807C19.3963 28.156 16.616 28.4627 13.9651 27.8503C11.3142 27.238 8.95015 25.7429 7.26055 23.6105C5.57094 21.4781 4.65611 18.8348 4.6661 16.1141C4.67608 13.3935 5.61028 10.757 7.31551 8.63704" stroke="#C52222" stroke-width="2" stroke-linecap="round"/>
<path d="M16.6673 8.82422C15.2488 8.82422 13.8607 9.23565 12.6713 10.0086C11.4818 10.7816 10.5421 11.883 9.966 13.1793C9.38989 14.4756 9.20212 15.9111 9.42542 17.312C9.64873 18.7128 10.2735 20.0188 11.2241 21.0718C12.1747 22.1247 13.4103 22.8794 14.7811 23.2442C16.1519 23.6091 17.5992 23.5684 18.9473 23.1275C20.2956 22.6864 21.4869 21.8638 22.3772 20.7594C23.2673 19.6548 23.818 18.3159 23.9625 16.9047" stroke="#C52222" stroke-width="2" stroke-linecap="round"/>
<path d="M16.6671 18.8256C17.1828 18.8256 17.6876 18.6759 18.1202 18.3948C18.5527 18.1137 18.8944 17.7132 19.1039 17.2419C19.3134 16.7705 19.3816 16.2485 19.3004 15.7391C19.2192 15.2297 18.992 14.7548 18.6464 14.3719C18.3007 13.9891 17.8514 13.7147 17.353 13.5819C16.8544 13.4492 16.3282 13.464 15.8379 13.6244" stroke="#C52222" stroke-width="2" stroke-linecap="round"/>
</svg>
