<svg width="113" height="16" viewBox="0 0 113 16" fill="none" xmlns="http://www.w3.org/2000/svg">
<path d="M12.6145 11.4643C12.6145 9.5393 14.2319 8.7343 16.7728 8.7343H22.8547V8.5343C22.8547 6.9093 21.7271 6.1043 18.9413 6.1043C16.2983 6.1043 15.4411 6.8293 15.4411 7.6693C15.4411 7.7293 15.4411 7.7893 15.4615 7.9093H12.9614C12.941 7.7293 12.941 7.5893 12.941 7.5493C12.941 5.6243 14.7829 4.2793 19.0025 4.2793C23.2221 4.2793 25.4773 6.0043 25.4773 8.7743V14.3943H22.8547C22.9159 13.7143 22.9567 12.6893 22.9772 12.0043H22.9567C22.5077 13.5893 21.0536 14.5743 17.6504 14.5743C13.9615 14.5743 12.6094 13.0293 12.6094 11.4643H12.6145ZM22.8547 10.3193V10.2593H17.3851C15.8493 10.2593 15.0074 10.4193 15.0074 11.3643C15.0074 12.0243 15.5789 12.7693 18.1606 12.7693C21.3955 12.7693 22.8496 11.4843 22.8496 10.3193H22.8547Z" fill="url(#paint0_linear_410_20)"/>
<path d="M26.7656 9.45539C26.7656 6.84539 28.73 4.27539 33.7098 4.27539C38.6896 4.27539 40.654 6.84539 40.654 9.45539C40.654 12.0654 38.7304 14.5954 33.7098 14.5954C28.6892 14.5954 26.7656 12.0854 26.7656 9.45539ZM38.0263 9.45539C38.0263 7.81039 36.8579 6.28539 33.7047 6.28539C30.5515 6.28539 29.3831 7.81039 29.3831 9.45539C29.3831 11.1004 30.5311 12.5854 33.7047 12.5854C36.8783 12.5854 38.0263 11.1004 38.0263 9.45539Z" fill="url(#paint1_linear_410_20)"/>
<path d="M2.10723 0H14.2098C14.2455 0 14.2761 0.0300025 14.2761 0.0650025V0.684999C14.2761 1.825 13.3322 2.75 12.1689 2.75H0.0663319C0.0306161 2.75 0 2.72 0 2.685V2.065C0 0.925004 0.94392 0 2.10723 0Z" fill="url(#paint2_linear_410_20)"/>
<path d="M10.1994 14.27C9.85249 14.295 8.66366 14.21 8.66366 11.795V5.335C8.66366 3.905 7.48504 2.75 6.0258 2.75H5.85742V12.34C5.85742 13.785 7.05135 14.955 8.5259 14.955H8.66876C8.66876 14.955 9.59737 14.945 10.2352 14.495C10.2811 14.465 10.3015 14.415 10.3015 14.36C10.3015 14.31 10.2607 14.27 10.2096 14.275L10.1994 14.27Z" fill="url(#paint3_linear_410_20)"/>
<path d="M60.0234 2.25977H67.4064C70.8045 2.25977 71.9933 3.63977 71.9933 5.32477C71.9933 6.50477 71.3147 7.54476 69.9626 7.86976V7.88977C71.7331 8.13977 72.6515 9.30476 72.6515 10.5748C72.6515 12.6348 71.3351 14.0498 68.2279 14.0498H60.0234V2.26477V2.25977ZM68.1921 7.48976C70.0392 7.48976 70.9167 6.55977 70.9167 5.46477C70.9167 4.31977 70.0749 3.29977 67.3146 3.29977H61.2072V7.48976H68.187H68.1921ZM67.937 13.0048C70.5341 13.0048 71.5188 11.9648 71.5188 10.4798C71.5188 9.38477 70.4575 8.43977 68.3401 8.43977H61.2123V13.0048H67.937Z" fill="url(#paint4_linear_410_20)"/>
<path d="M74.0586 11.4998C74.0586 9.83476 75.5944 9.20476 77.8445 9.20476H84.0029V8.93477C84.0029 7.10977 82.6712 5.95977 79.5792 5.95977C76.7271 5.95977 75.4668 6.81977 75.4668 8.03976C75.4668 8.09476 75.4668 8.16476 75.4872 8.28976H74.3902C74.3698 8.12977 74.3698 8.01977 74.3698 7.98477C74.3698 6.19477 76.125 5.00977 79.5792 5.00977C83.3447 5.00977 85.1356 6.67477 85.1356 9.01977V14.0348H84.0029C84.0386 13.2848 84.059 12.2998 84.0743 11.5098H84.0539C83.5794 13.1048 81.8599 14.1948 78.6455 14.1948C75.4311 14.1948 74.0586 12.9248 74.0586 11.4898V11.4998ZM83.9978 10.0848V10.0498H77.9669C76.0638 10.0498 75.1505 10.4448 75.1505 11.4848C75.1505 12.3098 75.773 13.2598 78.6965 13.2598C82.3702 13.2598 83.9978 11.6098 83.9978 10.0898V10.0848Z" fill="url(#paint5_linear_410_20)"/>
<path d="M86.7922 5.19953H87.9249L87.9045 7.84953H87.9402C88.7056 5.91453 90.5526 5.01953 93.4405 5.01953C97.4457 5.01953 98.8131 6.84453 98.8131 9.02953V14.0445H97.6804V9.27953C97.6804 7.36453 96.6396 6.01953 93.1853 6.01953C90.425 6.01953 87.9198 7.27453 87.9198 9.94453V14.0445H86.7871V5.19453L86.7922 5.19953Z" fill="url(#paint6_linear_410_20)"/>
<path d="M100.611 1.50999H101.743V10.59H101.764L110.774 5.19999H112.637L105.708 9.26499L112.999 14.045H111.096L104.81 9.86999L101.738 11.66V14.04H100.605V1.5L100.611 1.50999Z" fill="url(#paint7_linear_410_20)"/>
<path d="M51.8635 3.08704H53.5851V13.0237C53.5851 14.6652 54.9123 16 56.5433 16H56.7015C56.7113 16 57.7396 15.9819 58.4363 15.4773C58.4718 15.4514 58.4932 15.4078 58.4932 15.3607C58.4932 15.3465 58.4874 15.3323 58.4767 15.3225C58.4665 15.3132 58.4533 15.3083 58.4397 15.3093C58.2201 15.3265 57.7936 15.3015 57.407 14.9414C56.9065 14.4756 56.6529 13.6193 56.6529 12.3962V4.91614C56.6529 4.2475 56.4347 3.61657 56.0224 3.09243L55.9742 3.0312L56.0496 3.01405C57.3919 2.70937 58.3292 1.52931 58.3292 0.143526C58.3292 0.0641701 58.2654 0 58.1865 0H45.2542C43.6412 0 42.3286 1.32064 42.3286 2.94351C42.3286 3.02287 42.3924 3.08704 42.4713 3.08704H44.6301L44.5731 3.16493C44.2026 3.67241 44.0069 4.27395 44.0069 4.90439V12.3849C44.0069 13.6081 43.7532 14.4643 43.2527 14.9302C42.8661 15.2902 42.4392 15.3157 42.2196 15.298C42.2059 15.2976 42.1928 15.3015 42.1826 15.3113C42.1719 15.3211 42.166 15.3348 42.166 15.3495C42.166 15.3965 42.1874 15.4401 42.223 15.4661C42.9207 15.9711 43.9485 15.9887 43.9587 15.9887H44.1164C45.7479 15.9887 47.0746 14.6534 47.0746 13.0124V3.08753H48.7943V14.4457C48.7943 15.2966 49.4822 15.9892 50.3284 15.9892C51.1746 15.9892 51.8625 15.2971 51.8625 14.4457V3.08753L51.8635 3.08704Z" fill="url(#paint8_linear_410_20)"/>
<defs>
<linearGradient id="paint0_linear_410_20" x1="12.8645" y1="6.4971" x2="25.8567" y2="7.68191" gradientUnits="userSpaceOnUse">
<stop stop-color="#BAF7E9"/>
<stop offset="1" stop-color="#A3F5E1"/>
</linearGradient>
<linearGradient id="paint1_linear_410_20" x1="27.041" y1="6.49858" x2="41.0451" y2="7.87361" gradientUnits="userSpaceOnUse">
<stop stop-color="#BAF7E9"/>
<stop offset="1" stop-color="#A3F5E1"/>
</linearGradient>
<linearGradient id="paint2_linear_410_20" x1="0.283061" y1="0.59242" x2="12.9936" y2="5.40662" gradientUnits="userSpaceOnUse">
<stop stop-color="#BAF7E9"/>
<stop offset="1" stop-color="#A3F5E1"/>
</linearGradient>
<linearGradient id="paint3_linear_410_20" x1="5.94554" y1="5.37927" x2="10.4667" y2="5.49938" gradientUnits="userSpaceOnUse">
<stop stop-color="#BAF7E9"/>
<stop offset="1" stop-color="#A3F5E1"/>
</linearGradient>
<linearGradient id="paint4_linear_410_20" x1="60.2738" y1="4.79963" x2="73.0519" y2="5.79819" gradientUnits="userSpaceOnUse">
<stop stop-color="#BAF7E9"/>
<stop offset="1" stop-color="#A3F5E1"/>
</linearGradient>
<linearGradient id="paint5_linear_410_20" x1="74.2782" y1="6.98845" x2="85.4686" y2="7.97308" gradientUnits="userSpaceOnUse">
<stop stop-color="#BAF7E9"/>
<stop offset="1" stop-color="#A3F5E1"/>
</linearGradient>
<linearGradient id="paint6_linear_410_20" x1="87.0256" y1="6.96375" x2="99.1541" y2="8.14289" gradientUnits="userSpaceOnUse">
<stop stop-color="#BAF7E9"/>
<stop offset="1" stop-color="#A3F5E1"/>
</linearGradient>
<linearGradient id="paint7_linear_410_20" x1="100.851" y1="4.20251" x2="113.403" y2="5.10723" gradientUnits="userSpaceOnUse">
<stop stop-color="#BAF7E9"/>
<stop offset="1" stop-color="#A3F5E1"/>
</linearGradient>
<linearGradient id="paint8_linear_410_20" x1="42.4897" y1="3.44681" x2="59.0202" y2="4.67753" gradientUnits="userSpaceOnUse">
<stop stop-color="#BAF7E9"/>
<stop offset="1" stop-color="#A3F5E1"/>
</linearGradient>
</defs>
</svg>
