<svg width="28" height="25" viewBox="0 0 28 25" fill="none" xmlns="http://www.w3.org/2000/svg">
<path d="M8.01074 22.887L11.6795 23.8487V22.5911L11.979 22.2952H14.0755V23.7747V24.8104H11.8293L9.05896 23.6267L8.01074 22.887Z" fill="#CDBDB2"/>
<path d="M19.9894 22.887L16.3955 23.8487V22.5911L16.096 22.2952H13.9996V23.7747V24.8104H16.2458L19.0161 23.6267L19.9894 22.887Z" fill="#CDBDB2"/>
<path d="M11.9803 20.1497L11.6808 22.5909L12.0552 22.295H15.9485L16.3978 22.5909L16.0983 20.1497L15.4993 19.7798L12.5044 19.8538L11.9803 20.1497Z" fill="#393939"/>
<path d="M9.95947 3.65259L11.7564 7.79527L12.58 19.8534H15.5001L16.3986 7.79527L18.0458 3.65259H9.95947Z" fill="#F89C35"/>
<path d="M2.09644 12.752L0 18.7441L5.24111 18.4482H8.6104V15.859L8.46065 10.5327L7.71192 11.1245L2.09644 12.752Z" fill="#F89D35"/>
<path d="M6.06635 13.4175L12.2059 13.5654L11.5321 16.6724L8.61203 15.9327L6.06635 13.4175Z" fill="#D87C30"/>
<path d="M6.06635 13.4917L8.61203 15.8589V18.2262L6.06635 13.4917Z" fill="#EA8D3A"/>
<path d="M8.6109 15.9329L11.6058 16.6726L12.5792 19.8536L11.9053 20.2235L8.6109 18.3001V15.9329Z" fill="#F89D35"/>
<path d="M8.60973 18.3L8.01074 22.8866L11.979 20.1495L8.60973 18.3Z" fill="#EB8F35"/>
<path d="M12.2036 13.5654L12.5779 19.8534L11.4548 16.6354L12.2036 13.5654Z" fill="#EA8E3A"/>
<path d="M5.16541 18.374L8.60957 18.3L8.01058 22.8866L5.16541 18.374Z" fill="#D87C30"/>
<path d="M1.64721 24.8842L8.01141 22.8868L5.16624 18.3743L0 18.7441L1.64721 24.8842Z" fill="#EB8F35"/>
<path d="M11.7567 7.79565L8.53715 10.4588L6.06635 13.4179L12.2059 13.6398L11.7567 7.79565Z" fill="#E8821E"/>
<path d="M8.01074 22.8868L11.979 20.1497L11.6795 22.5169V23.8485L8.98409 23.3306L8.01074 22.8868Z" fill="#DFCEC3"/>
<path d="M19.9894 22.8868L16.096 20.1497L16.3955 22.5169V23.8485L19.091 23.3306L19.9894 22.8868Z" fill="#DFCEC3"/>
<path d="M10.5578 14.8972L11.3814 16.5987L8.46136 15.8589L10.5578 14.8972Z" fill="#393939"/>
<path d="M1.57306 0.175781L11.7558 7.79535L10.0337 3.65267L1.57306 0.175781Z" fill="#E88F35"/>
<path d="M1.57226 0.175781L0.224548 4.24448L0.973279 8.68306L0.449167 8.97897L1.1979 9.64476L0.598913 10.1626L1.42252 10.9024L0.898406 11.3462L2.09637 12.8257L7.71185 11.1243C10.4572 8.95431 11.8049 7.84467 11.755 7.79535C11.7051 7.74603 8.31084 5.20617 1.57226 0.175781Z" fill="#8E5A30"/>
<path d="M25.9036 12.752L28 18.7441L22.7589 18.4482H19.3896V15.859L19.5393 10.5327L20.2881 11.1245L25.9036 12.752Z" fill="#F89D35"/>
<path d="M21.9337 13.4175L15.7941 13.5654L16.4679 16.6724L19.388 15.9327L21.9337 13.4175Z" fill="#D87C30"/>
<path d="M21.9337 13.4917L19.388 15.8589V18.2262L21.9337 13.4917Z" fill="#EA8D3A"/>
<path d="M19.3891 15.9329L16.3942 16.6726L15.4208 19.8536L16.0947 20.2235L19.3891 18.3001V15.9329Z" fill="#F89D35"/>
<path d="M19.3903 18.3L19.9893 22.8866L16.0959 20.2234L19.3903 18.3Z" fill="#EB8F35"/>
<path d="M15.7964 13.5654L15.4221 19.8534L16.5452 16.6354L15.7964 13.5654Z" fill="#EA8E3A"/>
<path d="M22.8346 18.374L19.3904 18.3L19.9894 22.8866L22.8346 18.374Z" fill="#D87C30"/>
<path d="M26.3528 24.8842L19.9886 22.8868L22.8338 18.3743L28 18.7441L26.3528 24.8842Z" fill="#EB8F35"/>
<path d="M16.2433 7.79565L19.4628 10.4588L21.9337 13.4179L15.7941 13.6398L16.2433 7.79565Z" fill="#E8821E"/>
<path d="M17.4422 14.8972L16.6186 16.5987L19.5386 15.8589L17.4422 14.8972Z" fill="#393939"/>
<path d="M26.4269 0.175781L16.2442 7.79535L17.9663 3.65267L26.4269 0.175781Z" fill="#E88F35"/>
<path d="M26.4277 0.175781L27.7755 4.24448L27.0267 8.68306L27.5508 8.97897L26.8021 9.64476L27.4011 10.1626L26.5775 10.9024L27.1016 11.3462L25.9036 12.8257L20.2881 11.1243C17.5428 8.95431 16.1951 7.84467 16.245 7.79535C16.2949 7.74603 19.6892 5.20617 26.4277 0.175781Z" fill="#8E5A30"/>
</svg>
