<svg width="18" height="16" viewBox="0 0 18 16" fill="none" xmlns="http://www.w3.org/2000/svg">
<path d="M1.88599 0.608832L1.54616 0.527344C0.603389 1.08036 0.0143334 2.08888 0 3.17065H3.50058C3.40441 2.25872 3.15103 1.57157 2.74831 1.12751C2.50834 0.862907 2.21844 0.688488 1.88599 0.608832Z" fill="url(#paint0_linear_410_356)" fill-opacity="0.65"/>
<path d="M16.4544 0.525391L16.1146 0.606878C15.7826 0.686534 15.4927 0.860954 15.2523 1.12556C14.8496 1.56962 14.5962 2.25677 14.5 3.16869H18.0006C17.9862 2.08693 17.3972 1.07841 16.4544 0.525391Z" fill="url(#paint1_linear_410_356)" fill-opacity="0.65"/>
<path d="M15.3166 0.596963C15.3388 0.58094 15.3614 0.565376 15.3836 0.550268C15.4266 0.521427 15.4715 0.493959 15.5172 0.468323C15.6439 0.397365 15.7789 0.340141 15.9186 0.297566C15.7928 0.246293 15.6573 0.200971 15.5145 0.161601C14.9703 0.0119026 14.4922 0.000457794 14.4723 0H14.28C14.1657 0 14.0511 0.0059511 13.9387 0.0169381C13.8273 0.028383 13.7159 0.0453217 13.6072 0.0672958C13.5804 0.0727893 13.554 0.0787406 13.5277 0.0851497L13.5055 0.090643C13.2706 0.146036 13.044 0.225692 12.8323 0.326865C12.7352 0.37356 12.6395 0.424833 12.5479 0.479768C12.5021 0.507235 12.4568 0.536077 12.4125 0.565833C12.3237 0.625346 12.2372 0.689438 12.1549 0.756733C12.0319 0.857448 11.9145 0.968234 11.8067 1.08543C11.699 1.20308 11.5987 1.32898 11.509 1.46036C11.3883 1.63707 11.2847 1.82614 11.2006 2.02253C11.158 2.12142 11.1201 2.22396 11.0882 2.32651C11.0559 2.42951 11.0281 2.53618 11.0059 2.6433C10.9833 2.7518 10.9662 2.86213 10.9551 2.97154C10.9477 3.04158 10.943 3.11758 10.9403 3.21005L10.9393 3.2366C10.9384 3.26087 10.9375 3.28513 10.9375 3.30939V12.6031C11.0332 12.5989 11.1298 12.5912 11.2246 12.5788C11.4378 12.5513 11.6486 12.5033 11.8511 12.4355C11.9015 12.4186 11.951 12.4007 12 12.382C12.0976 12.3444 12.1942 12.3014 12.2876 12.2542C12.3796 12.208 12.4716 12.1563 12.5599 12.1009C12.6039 12.0734 12.6473 12.0446 12.6899 12.0153C12.7851 11.9489 12.8781 11.877 12.9659 11.801C12.9955 11.7758 13.0242 11.7497 13.0528 11.7236C13.7186 11.107 14.1001 10.2372 14.1001 9.33716V4.07299C14.1001 3.77405 14.1135 3.48198 14.1403 3.20547C14.1542 3.06173 14.1694 2.93629 14.187 2.82184C14.2101 2.67077 14.2379 2.52428 14.2702 2.38602C14.3188 2.17818 14.378 1.98179 14.4469 1.80233C14.5856 1.44159 14.7677 1.13579 14.9883 0.892698C15.0891 0.781912 15.1991 0.682113 15.3161 0.596963H15.3166Z" fill="url(#paint2_linear_410_356)" fill-opacity="0.65"/>
<path d="M7.06034 3.21051C7.01549 1.71947 5.96083 0.436736 4.49466 0.0906437C4.23944 0.0306727 3.97912 0 3.7202 0H3.52693C3.50751 0 3.02988 0.0119033 2.48568 0.161602C2.42002 0.179914 2.34882 0.201888 2.27438 0.226608C2.23138 0.241258 2.18791 0.256822 2.14491 0.273303C2.12272 0.281543 2.10191 0.289784 2.08203 0.298024C2.08527 0.29894 2.08897 0.299855 2.0922 0.301228C2.13382 0.314047 2.17635 0.328696 2.21935 0.345177C2.33356 0.388667 2.44453 0.443603 2.54948 0.507694C2.61838 0.549811 2.68588 0.596964 2.75015 0.647779C2.795 0.683487 2.83939 0.721483 2.88193 0.761311C2.92631 0.802513 2.96978 0.846919 3.01139 0.892698C3.0849 0.973727 3.15518 1.063 3.21945 1.1573C3.31609 1.29876 3.40394 1.4567 3.47977 1.627C3.67211 2.05778 3.79972 2.58882 3.85891 3.20593C3.88572 3.4829 3.89913 3.77497 3.89913 4.07345V9.33762C3.89913 9.66311 3.94722 9.98403 4.04247 10.2921C4.07345 10.3919 4.10951 10.4913 4.14974 10.5879C4.18996 10.684 4.23527 10.7788 4.28429 10.8699C4.43132 11.1427 4.61626 11.394 4.83496 11.6165C4.94362 11.7268 5.0606 11.8303 5.18313 11.9246C5.51881 12.1819 5.89425 12.37 6.30021 12.4836C6.45464 12.5271 6.61415 12.5596 6.77459 12.5802C6.86984 12.5925 6.96601 12.6003 7.06172 12.6044V3.31077C7.06172 3.2865 7.0608 3.26224 7.05988 3.23798L7.05895 3.21142L7.06034 3.21051Z" fill="url(#paint3_linear_410_356)" fill-opacity="0.65"/>
<path d="M10.6312 12.9256C10.5961 12.6161 10.5781 12.281 10.5781 11.929V5.80049C10.5781 5.66498 10.5684 5.52306 10.5499 5.37932C10.4398 4.53423 10.0052 3.77475 9.3269 3.2405L9.23674 3.16954H10.5887C10.6382 1.8717 11.3719 0.709361 12.5223 0.0917969H5.48047C6.64193 0.715312 7.37895 1.89459 7.41501 3.208V12.6912C7.41501 14.516 8.91447 16.0006 10.7579 16.0006H10.9512C10.9826 15.9997 11.7132 15.9809 12.3966 15.703C12.0405 15.5964 11.7284 15.3963 11.4663 15.1079C11.0219 14.6185 10.7408 13.8838 10.6312 12.9242V12.9256Z" fill="url(#paint4_linear_410_356)" fill-opacity="0.65"/>
<defs>
<linearGradient id="paint0_linear_410_356" x1="0" y1="1.849" x2="3.5014" y2="1.85334" gradientUnits="userSpaceOnUse">
<stop stop-color="#BAF7E9"/>
<stop offset="1" stop-color="#A3F5E1"/>
</linearGradient>
<linearGradient id="paint1_linear_410_356" x1="14.5" y1="1.84704" x2="18.0014" y2="1.85139" gradientUnits="userSpaceOnUse">
<stop stop-color="#BAF7E9"/>
<stop offset="1" stop-color="#A3F5E1"/>
</linearGradient>
<linearGradient id="paint2_linear_410_356" x1="10.9375" y1="6.30153" x2="15.9197" y2="6.30338" gradientUnits="userSpaceOnUse">
<stop stop-color="#BAF7E9"/>
<stop offset="1" stop-color="#A3F5E1"/>
</linearGradient>
<linearGradient id="paint3_linear_410_356" x1="2.08203" y1="6.30222" x2="7.06289" y2="6.30406" gradientUnits="userSpaceOnUse">
<stop stop-color="#BAF7E9"/>
<stop offset="1" stop-color="#A3F5E1"/>
</linearGradient>
<linearGradient id="paint4_linear_410_356" x1="5.48047" y1="8.04619" x2="12.524" y2="8.04912" gradientUnits="userSpaceOnUse">
<stop stop-color="#BAF7E9"/>
<stop offset="1" stop-color="#A3F5E1"/>
</linearGradient>
</defs>
</svg>
