<svg width="17" height="16" viewBox="0 0 17 16" fill="none" xmlns="http://www.w3.org/2000/svg">
  <g clip-path="url(#clip0_7745_89303)">
  <path d="M8.5 15.9149C12.9334 15.9149 16.5 12.3672 16.5 7.95743C16.5 3.54766 12.9334 0 8.5 0C4.06664 0 0.5 3.54766 0.5 7.95743C0.5 12.3672 4.06664 15.9149 8.5 15.9149Z" fill="#2775CA"/>
  <path d="M10.7 9.21921C10.7 8.05877 10 7.6609 8.60004 7.49515C7.60004 7.3625 7.40004 7.09728 7.40004 6.63304C7.40004 6.1688 7.7334 5.87048 8.40004 5.87048C9.00004 5.87048 9.3334 6.06942 9.50004 6.56676C9.5334 6.66622 9.6334 6.73251 9.7334 6.73251H10.2667C10.4 6.73251 10.5 6.63304 10.5 6.50047V6.46729C10.3667 5.73783 9.76668 5.1742 9.00004 5.10792V4.31218C9.00004 4.17953 8.90004 4.08006 8.7334 4.04688H8.2334C8.10004 4.04688 8.00004 4.14634 7.96668 4.31218V5.07474C6.96668 5.20739 6.3334 5.87048 6.3334 6.69941C6.3334 7.79355 7.00004 8.22453 8.40004 8.39036C9.3334 8.55611 9.6334 8.75505 9.6334 9.28557C9.6334 9.81609 9.16668 10.1808 8.5334 10.1808C7.66668 10.1808 7.36668 9.81601 7.26668 9.31867C7.2334 9.1861 7.1334 9.11974 7.0334 9.11974H6.46668C6.3334 9.11974 6.2334 9.21921 6.2334 9.35186V9.38504C6.36668 10.2139 6.90004 10.8107 8.00004 10.9765V11.7723C8.00004 11.9048 8.10004 12.0043 8.26668 12.0375H8.76668C8.90004 12.0375 9.00004 11.938 9.0334 11.7723V10.9765C10.0334 10.8107 10.7 10.1144 10.7 9.21921Z" fill="white"/>
  <path d="M6.80016 12.6981C4.20016 11.7698 2.8668 8.88519 3.83352 6.33213C4.33352 4.93958 5.43352 3.87862 6.80016 3.38128C6.93352 3.31499 7.00016 3.21552 7.00016 3.04969V2.58553C7.00016 2.45288 6.93352 2.35342 6.80016 2.32031C6.7668 2.32031 6.70016 2.32031 6.6668 2.35342C3.50016 3.34809 1.7668 6.6969 2.7668 9.84669C3.3668 11.7034 4.80016 13.1291 6.6668 13.7259C6.80016 13.7922 6.93352 13.7259 6.9668 13.5933C7.00016 13.5602 7.00016 13.527 7.00016 13.4607V12.9965C7.00016 12.897 6.90016 12.7644 6.80016 12.6981ZM10.3335 2.35342C10.2002 2.28713 10.0668 2.35342 10.0335 2.48607C10.0002 2.51925 10.0002 2.55235 10.0002 2.61872V3.08287C10.0002 3.21552 10.1002 3.34809 10.2002 3.41446C12.8002 4.34277 14.1335 7.22734 13.1668 9.78041C12.6668 11.173 11.5668 12.2339 10.2002 12.7313C10.0668 12.7975 10.0002 12.897 10.0002 13.0628V13.527C10.0002 13.6597 10.0668 13.7591 10.2002 13.7922C10.2335 13.7922 10.3002 13.7922 10.3335 13.7591C13.5002 12.7644 15.2335 9.41564 14.2335 6.26585C13.6335 4.37596 12.1668 2.95022 10.3335 2.35342Z" fill="white"/>
  </g>
  <defs>
  <clipPath id="clip0_7745_89303">
  <rect width="16" height="15.9149" fill="white" transform="translate(0.5)"/>
  </clipPath>
  </defs>
</svg>
