<svg width="32" height="32" viewBox="0 0 32 32" fill="none" xmlns="http://www.w3.org/2000/svg">
<path d="M14.9438 27.2817C8.94197 26.7964 4.23633 21.7768 4.23633 15.6532C4.23633 9.22589 9.45055 4 15.8895 4C21.8432 4 26.7422 8.46173 27.4454 14.2221" stroke="#AFF6E5" stroke-width="2" stroke-linecap="round" stroke-linejoin="round"/>
<path d="M20.2063 14.4648C20.17 13.4696 20.0856 12.5122 19.952 11.6027C19.3448 7.16433 17.7568 4 15.8899 4C14.0347 4 12.4337 7.16433 11.8278 11.6027C11.6448 12.8638 11.5488 14.2221 11.5488 15.6532C11.5488 17.0841 11.6448 18.4543 11.8278 19.7153C12.252 22.7953 13.5611 25.7664 14.9441 27.2817" stroke="#AFF6E5" stroke-width="2" stroke-linecap="round" stroke-linejoin="round"/>
<path d="M4.23633 15.6641H15.3628" stroke="#AFF6E5" stroke-width="2" stroke-linecap="round" stroke-linejoin="round"/>
<path fill-rule="evenodd" clip-rule="evenodd" d="M23.3273 28.0008C23.3273 28.0008 27.7281 26.6683 27.7281 22.9955C27.7281 19.3226 27.8877 19.4392 27.5334 19.0838C27.1806 18.727 23.9046 17.5879 23.3273 17.5879C22.75 17.5879 19.4741 18.7296 19.1198 19.0838C18.767 19.4367 18.9266 19.3212 18.9266 22.9955C18.9266 26.6696 23.3273 28.0008 23.3273 28.0008Z" stroke="#AFF6E5" stroke-width="2" stroke-linecap="round" stroke-linejoin="round"/>
</svg>
